<svg width="402" height="401" viewBox="0 0 402 401" fill="none" xmlns="http://www.w3.org/2000/svg">
<path d="M13.4614 1H38.5336L53.9598 15.2692L312.926 15.6548L324.246 2.81407L325.845 1H358.337C365.241 1 401 33.5097 401 40.5267V387.732C401 394.749 395.442 400.398 388.539 400.398H13.4614C6.55777 400.398 1 394.749 1 387.732V13.6659C1 6.649 6.55777 1 13.4614 1V1Z" fill="#2684DE" stroke="black" stroke-width="1.2"/>
<path d="M332.353 199.483H69.6469C62.9269 199.483 57.4792 205.999 57.4792 214.037V363.537C57.4792 371.575 62.9269 378.091 69.6469 378.091H332.353C339.073 378.091 344.521 371.575 344.521 363.537V214.037C344.521 205.999 339.073 199.483 332.353 199.483Z" fill="#CCCCCC" stroke="black" stroke-width="1.27109"/>
<path d="M301.957 1.36833H100.043C95.3851 1.36833 91.6089 5.1669 91.6089 9.85269V120.342C91.6089 125.028 95.3851 128.827 100.043 128.827H301.957C306.615 128.827 310.391 125.028 310.391 120.342V9.85269C310.391 5.1669 306.615 1.36833 301.957 1.36833Z" fill="#4D4D4D" stroke="black" stroke-width="1.2"/>
<path d="M273.718 15.7339H239.154C233.789 15.7339 229.44 20.0828 229.44 25.4474V104.748C229.44 110.112 233.789 114.461 239.154 114.461H273.718C279.083 114.461 283.432 110.112 283.432 104.748V25.4474C283.432 20.0828 279.083 15.7339 273.718 15.7339Z" fill="#68A9E8" stroke="black" stroke-width="1.2"/>
<path d="M281.908 218.145C269.52 218.145 259.547 229.533 259.547 243.679V284.159C259.547 298.305 269.52 309.693 281.908 309.693C294.296 309.693 304.27 298.305 304.27 284.159L287.763 278.172L304.27 271.744V243.679C304.27 229.533 294.296 218.145 281.908 218.145Z" fill="black" stroke="black" stroke-width="1.18934"/>
<path d="M267.647 240.525C269.987 240.525 271.885 238.627 271.885 236.286C271.885 233.945 269.987 232.048 267.647 232.048C265.306 232.048 263.408 233.945 263.408 236.286C263.408 238.627 265.306 240.525 267.647 240.525Z" fill="white" stroke="white" stroke-width="0.764518"/>
<path d="M161.764 344.08C182.208 357.067 210.27 357.449 230.121 344.177" stroke="black" stroke-width="1.2"/>
<path d="M373.182 361.2C380.421 361.2 386.29 355.211 386.29 347.824C386.29 340.437 380.421 334.449 373.182 334.449C365.942 334.449 360.074 340.437 360.074 347.824C360.074 355.211 365.942 361.2 373.182 361.2Z" fill="#CCCCCC" stroke="black" stroke-width="1.09182"/>
<path d="M41.1912 336.291H17.1617V360.321H41.1912V336.291Z" fill="#CCCCCC" stroke="black" stroke-width="0.894834"/>
<path d="M117.02 218.418C129.408 218.418 139.381 229.806 139.381 243.952V284.432C139.381 298.578 129.408 309.966 117.02 309.966C104.632 309.966 94.659 298.578 94.659 284.432L111.166 278.445L94.659 272.017V243.952C94.659 229.806 104.632 218.418 117.02 218.418Z" fill="black" stroke="black" stroke-width="1.18934"/>
<path d="M108.273 240.525C110.614 240.525 112.511 238.627 112.511 236.286C112.511 233.945 110.614 232.048 108.273 232.048C105.932 232.048 104.034 233.945 104.034 236.286C104.034 238.627 105.932 240.525 108.273 240.525Z" fill="white" stroke="white" stroke-width="0.764518"/>
</svg>
